<svg xmlns="http://www.w3.org/2000/svg" viewBox="0 0 64 64">
  <defs>
    <linearGradient id="g" x1="0" y1="0" x2="1" y2="1">
      <stop offset="0%" stop-color="#0ea5e9"/>
      <stop offset="100%" stop-color="#6366f1"/>
    </linearGradient>
  </defs>
  <rect x="2" y="2" width="60" height="60" rx="12" fill="url(#g)"/>
  <g fill="#fff" transform="translate(12,12)">
    <path d="M20 0a20 20 0 1020 20A20.023 20.023 0 0020 0zm0 36a16 16 0 1116-16 16.018 16.018 0 01-16 16z"/>
    <path d="M20 8a12 12 0 1012 12A12.014 12.014 0 0020 8zm0 18a6 6 0 116-6 6.007 6.007 0 01-6 6z"/>
    <circle cx="20" cy="20" r="2.5" fill="#22c55e"/>
  </g>
</svg>
